<svg xmlns="http://www.w3.org/2000/svg" width="500" height="500" viewBox="0 0 500 500" version="1.1"><path d="M 237 43.028 C 221.256 45.202, 203 49.724, 203 51.449 C 203 52.072, 204.305 56.613, 205.899 61.541 C 207.493 66.468, 209.325 72.525, 209.968 75 C 211.213 79.787, 222.993 117.098, 223.571 118.084 C 223.759 118.405, 227.195 117.792, 231.206 116.723 C 236.506 115.309, 243.160 114.638, 255.547 114.268 C 275.467 113.672, 286.473 114.866, 299.404 119.024 C 304.358 120.617, 308.444 121.826, 308.484 121.711 C 308.523 121.595, 309.581 119.025, 310.834 116 C 312.087 112.975, 314.715 106.225, 316.673 101 C 318.632 95.775, 323.521 83.292, 327.538 73.260 C 331.555 63.228, 334.485 54.800, 334.050 54.531 C 333.615 54.262, 330.838 53.374, 327.880 52.557 C 324.921 51.740, 319.125 50.128, 315 48.974 C 296.592 43.828, 289.351 42.870, 266 42.493 C 253.625 42.294, 240.575 42.534, 237 43.028 M 238 51.875 C 235.525 52.276, 232.077 53.360, 230.338 54.282 C 220.757 59.366, 218.163 72.813, 225.310 80.349 C 228.177 83.371, 229.514 83.889, 238.500 85.459 C 244 86.419, 249.525 87.605, 250.778 88.094 C 253.846 89.291, 254.640 91.789, 252.600 93.828 C 250.428 95.999, 239.260 95.904, 233.234 93.663 L 228.967 92.077 226.484 97.226 C 225.118 100.057, 224 102.929, 224 103.607 C 224 105.872, 233.986 108.328, 243.027 108.285 C 253.078 108.238, 259.829 105.835, 265.054 100.445 C 267.867 97.542, 268.432 96.147, 268.774 91.261 C 269.513 80.691, 263.997 75.825, 247.500 72.496 C 238.149 70.608, 237.500 70.320, 237.500 68.061 C 237.500 63.850, 242.227 63.471, 256.007 66.575 C 258.247 67.080, 258.807 66.544, 261.257 61.548 C 262.766 58.472, 264 55.560, 264 55.076 C 264 52.534, 246.909 50.430, 238 51.875 M 178 71.595 C 164.718 75.185, 156.666 85.702, 156.636 99.500 C 156.618 107.942, 158.895 112.994, 165.841 119.928 C 176.914 130.981, 193.505 130.337, 205.452 118.390 C 215.316 108.526, 215.574 90.204, 205.990 80.229 C 198.097 72.015, 187.986 68.896, 178 71.595 M 179.500 85.378 C 168.958 90.181, 168.046 104.882, 177.875 111.561 C 186.129 117.170, 197.001 111.930, 198.689 101.530 C 199.409 97.089, 195.118 87.831, 191.595 86.225 C 187.349 84.290, 182.615 83.959, 179.500 85.378 M 118.678 101.250 C 110.832 109.088, 103.053 117.525, 101.392 120 C 99.730 122.475, 96.068 127.650, 93.255 131.500 C 85.464 142.160, 73.750 165.953, 69.043 180.675 C 59.199 211.468, 56.300 243.104, 60.535 273.500 C 63.281 293.202, 70.779 316.950, 80.053 335.317 C 86.467 348.021, 89.026 352.138, 101.279 369.472 C 108.993 380.385, 135.909 406.029, 145 411.127 C 146.925 412.206, 151.875 415.331, 156 418.070 C 162.575 422.438, 167.829 425.213, 179.500 430.484 C 186.254 433.534, 197.938 437.904, 204.786 439.940 C 219.554 444.331, 245.340 447.951, 262 447.971 C 273.964 447.986, 304.940 444.394, 306.526 442.807 C 306.792 442.541, 305.909 439.286, 304.563 435.574 C 302.690 430.410, 302.251 427.680, 302.692 423.949 C 303.162 419.985, 302.790 418.082, 300.706 413.786 C 294.837 401.689, 293.693 397.740, 293.595 389.251 C 293.533 383.884, 293.883 381.002, 294.595 381.001 C 295.920 381, 299.692 377.011, 298.405 376.973 C 297.907 376.958, 299.016 375.689, 300.868 374.152 C 304.104 371.468, 304.243 371.067, 304.386 363.946 C 304.503 358.092, 304.168 356.168, 302.790 354.790 C 301.131 353.131, 301.170 352.921, 303.597 350.494 C 305 349.091, 305.983 347.449, 305.782 346.846 C 305.567 346.202, 302.417 345.689, 298.160 345.606 C 293.987 345.524, 290.606 344.982, 290.202 344.331 C 289.084 342.526, 289.924 301, 291.079 301 C 291.630 301, 293.792 302.854, 295.884 305.119 C 299.214 308.726, 299.949 309.098, 301.794 308.110 C 303.556 307.167, 304.944 307.557, 310.283 310.492 C 320.490 316.102, 327.535 314.573, 330.040 306.205 C 332.092 299.349, 332.359 275.514, 330.615 254.941 C 328.155 225.934, 328.159 226.078, 329.620 220.594 C 330.366 217.792, 330.982 212.864, 330.988 209.643 C 330.997 205.379, 331.340 203.913, 332.250 204.252 C 335.241 205.366, 340.717 206.974, 343.284 207.493 C 348.060 208.457, 348.417 210.806, 347.121 232.717 C 346.478 243.598, 345.527 263.075, 345.008 276 C 343.923 303.032, 343.049 310.282, 339.043 325.500 C 337.450 331.550, 334.809 343.319, 333.174 351.653 C 331.538 359.987, 327.945 374.387, 325.188 383.653 C 322.431 392.919, 318.991 404.550, 317.544 409.500 C 316.097 414.450, 314.066 421.309, 313.030 424.741 C 311.994 428.174, 310.836 433.462, 310.458 436.491 C 309.884 441.087, 310.025 442, 311.313 442 C 312.450 442, 313.027 440.486, 313.505 436.250 C 313.861 433.087, 315.475 425.775, 317.090 420 C 318.706 414.225, 323.141 398.475, 326.946 385 C 330.752 371.525, 334.414 357.575, 335.086 354 C 335.757 350.425, 338.231 339.625, 340.582 330 C 346.304 306.584, 346.844 301.899, 347.995 265.658 C 348.539 248.521, 349.472 230.450, 350.069 225.500 C 350.870 218.855, 350.854 215.322, 350.008 212 C 349.378 209.525, 348.616 206.488, 348.314 205.250 C 348.013 204.012, 347.292 203, 346.712 203 C 346.132 203, 344.947 202.390, 344.079 201.645 C 343.210 200.899, 340.025 199.456, 337 198.438 C 330.125 196.125, 329 195.300, 329 192.578 C 329 189.926, 327.227 188, 324.786 188 C 322.955 188, 322.177 187.688, 316.204 184.559 C 313.509 183.147, 312.628 183.064, 311.377 184.102 C 310.133 185.134, 309.687 185.112, 308.989 183.982 C 308.327 182.912, 307.598 182.838, 305.815 183.663 C 304.542 184.251, 302.150 185.140, 300.500 185.638 C 298.364 186.282, 297.194 187.483, 296.438 189.808 C 295.432 192.898, 295.289 192.977, 293.767 191.286 C 290.879 188.081, 291.225 186.606, 295 186.032 C 297.797 185.607, 298.568 184.998, 298.837 183 C 299.022 181.625, 300.372 179.521, 301.837 178.324 L 304.500 176.148 300.580 172.108 C 296.501 167.904, 296.527 167.816, 302.170 166.585 C 308.794 165.139, 316.542 152.750, 313.904 147.821 C 312.839 145.831, 312.785 145.824, 298.988 145.991 C 289.549 146.104, 289.452 146.081, 286.488 142.948 C 284.844 141.211, 280.800 137.925, 277.500 135.645 C 272.097 131.912, 270.903 131.500, 265.500 131.500 C 261.437 131.500, 256.214 132.565, 249.321 134.798 C 240.698 137.592, 238.391 138.815, 234.229 142.798 C 228.436 148.343, 227.183 150.492, 225.403 157.932 C 223.531 165.757, 223.686 169.464, 226.081 174.159 C 227.455 176.853, 227.826 178.574, 227.171 179.229 C 225.688 180.712, 227.702 185.542, 230.300 186.731 C 232.982 187.957, 239 199.714, 239 203.727 C 239 207.358, 234.410 212, 230.821 212 C 229.408 212, 226.286 211.306, 223.883 210.459 C 216.424 207.827, 212.011 208.292, 205.616 212.383 C 199.056 216.579, 193.202 224.896, 190.048 234.500 C 188.964 237.800, 187.130 247.250, 185.972 255.500 C 182.693 278.850, 182.152 282.336, 181.423 284.796 C 180.969 286.327, 181.257 287.492, 182.289 288.296 C 183.519 289.254, 183.921 292.464, 184.258 304 C 184.490 311.975, 184.995 319.175, 185.380 320 C 185.765 320.825, 188.717 323.417, 191.939 325.760 C 197.633 329.900, 197.829 330.199, 198.899 336.342 C 199.505 339.819, 199.997 343.527, 199.994 344.582 C 199.985 347.750, 197.974 354, 196.963 354 C 195.030 354, 182.293 345.084, 176.500 339.676 C 173.200 336.595, 170.211 334.058, 169.859 334.037 C 168.901 333.982, 155.355 316.610, 151.636 310.669 C 144.538 299.330, 137.566 281.762, 134.360 267.137 C 132.284 257.664, 132.004 229.607, 133.889 220.044 C 137.302 202.741, 145.789 182.598, 155.398 169 C 158.701 164.325, 165.363 156.526, 170.202 151.669 C 175.041 146.812, 179 142.440, 179 141.953 C 179 141.466, 175.738 137.113, 171.750 132.279 C 167.762 127.444, 163.600 122.293, 162.500 120.831 C 159.578 116.948, 147.892 102.481, 141.785 95.187 C 138.878 91.715, 136.350 88.453, 136.167 87.937 C 135.289 85.470, 131.864 88.078, 118.678 101.250 M 124.233 115.123 C 119.648 116.446, 106.432 130.373, 99.758 140.913 L 97.980 143.721 101.740 146.251 C 103.808 147.643, 108.972 151.643, 113.216 155.141 C 117.459 158.638, 123.534 163.415, 126.716 165.756 C 129.897 168.096, 134.342 171.584, 136.593 173.505 L 140.685 176.999 144.593 171.443 C 146.742 168.388, 150.476 163.576, 152.891 160.751 C 155.307 157.926, 158.197 153.564, 159.313 151.057 C 162.082 144.844, 161.983 135.662, 159.084 129.674 C 156.259 123.837, 148.315 116.459, 143.382 115.089 C 138.730 113.797, 128.765 113.815, 124.233 115.123 M 126.926 130.331 C 123.489 131.891, 117.657 138.663, 118.302 140.344 C 118.584 141.081, 121.220 143.300, 124.158 145.276 C 127.096 147.252, 131.300 150.464, 133.500 152.415 C 135.700 154.366, 137.986 155.970, 138.580 155.981 C 140.499 156.015, 146.192 147, 146.655 143.193 C 147.862 133.276, 136.605 125.937, 126.926 130.331 M 87.614 162.816 C 86.109 165.251, 82.947 175.105, 83.424 175.876 C 83.730 176.372, 85.114 177.063, 86.498 177.410 C 87.882 177.758, 94.074 180.444, 100.258 183.380 C 121.464 193.450, 131.091 197.350, 132.048 196.258 C 132.413 195.841, 133.771 192.885, 135.065 189.688 C 137.799 182.938, 138.285 183.587, 127 178.921 C 119.422 175.787, 117.426 174.887, 99.658 166.594 C 89.338 161.777, 88.431 161.493, 87.614 162.816 M 96.734 203.148 C 95.795 208.292, 94.745 214.365, 94.402 216.643 L 93.778 220.787 98.938 221.893 C 106.632 223.543, 106.904 223.453, 107.616 219 C 108.430 213.907, 109.596 213.919, 111.129 219.038 C 112.178 222.538, 112.080 223.700, 110.393 227.771 C 106.012 238.341, 92.453 240.053, 85.899 230.863 C 82.434 226.005, 82.552 218.588, 86.169 213.845 L 88.837 210.347 83.252 205.984 L 77.666 201.622 74.334 205.476 C 70.395 210.033, 69.013 214.397, 69.006 222.307 C 68.996 231.887, 70.758 236.853, 76.036 242.131 C 82.016 248.112, 87.899 251.094, 94.928 251.710 C 110.847 253.104, 126 238.865, 126 222.511 C 126 209.445, 114.631 195.967, 102.204 194.300 L 98.441 193.796 96.734 203.148 M 295.679 196.654 C 295.320 197.014, 295.288 198.948, 295.608 200.952 C 296.393 205.856, 295.123 206.652, 285.589 207.236 C 279.381 207.616, 277.383 208.123, 276.310 209.591 C 274.228 212.438, 272.665 218.538, 273.345 221.159 C 273.969 223.567, 281.109 228.611, 290.551 233.316 C 296.268 236.164, 297.436 238.099, 299.056 247.398 C 299.745 251.357, 300.918 254.521, 302.090 255.581 C 303.140 256.532, 304.010 258.478, 304.022 259.905 C 304.052 263.347, 307.499 267.891, 308.970 266.426 C 311.115 264.289, 312.071 253.451, 311.431 238.500 C 310.729 222.090, 310.022 219.600, 303.524 210.641 C 301.006 207.169, 300 204.728, 300 202.091 C 300 197.616, 297.661 194.673, 295.679 196.654 M 115.500 256.789 C 112.750 257.667, 110.343 258.494, 110.151 258.625 C 109.959 258.757, 111.174 263.282, 112.851 268.682 C 114.528 274.082, 116.195 280.351, 116.556 282.613 C 117.182 286.542, 117.084 286.751, 114.356 287.286 C 112.785 287.594, 111.234 287.543, 110.910 287.173 C 110.585 286.803, 108.812 281.212, 106.970 274.750 C 104.681 266.722, 103.163 263, 102.176 263 C 100.187 263, 92.686 265.178, 91.668 266.051 C 91.210 266.443, 92.470 272.285, 94.469 279.031 C 96.467 285.778, 97.742 291.623, 97.301 292.020 C 96.860 292.417, 95.306 293.023, 93.846 293.366 C 91.303 293.964, 91.107 293.707, 89.181 287.245 C 88.075 283.535, 86.443 277.599, 85.555 274.054 C 84.667 270.508, 83.753 267.420, 83.524 267.191 C 82.967 266.633, 73.866 268.846, 72.017 269.990 C 70.764 270.764, 71.026 272.535, 73.823 282.198 C 80.411 304.960, 82.431 311, 83.455 311.006 C 84.030 311.009, 90.800 309.220, 98.500 307.030 C 106.200 304.840, 117.225 301.747, 123 300.157 L 133.500 297.266 133.233 293.883 C 132.800 288.384, 122.775 254.991, 121.589 255.096 C 120.990 255.148, 118.250 255.910, 115.500 256.789 M 128.701 305.162 C 123.356 308.657, 123.357 308.622, 128.343 316.329 C 135.339 327.145, 138.113 332.283, 137.320 332.960 C 135.539 334.481, 113.247 348.832, 109.250 351.030 C 106.912 352.316, 105 353.744, 105 354.204 C 105 355.210, 109.660 362.818, 111.730 365.192 C 113.096 366.759, 113.810 366.508, 121.353 361.805 C 125.834 359.011, 130.819 355.774, 132.432 354.612 C 134.045 353.450, 137.645 351.150, 140.432 349.500 C 150.442 343.574, 157.978 338.485, 157.989 337.642 C 157.995 337.170, 155.863 333.495, 153.250 329.476 C 150.637 325.457, 145.583 317.631, 142.018 312.085 C 138.452 306.538, 135.077 302.005, 134.518 302.012 C 133.958 302.018, 131.340 303.436, 128.701 305.162 M 158.910 345.108 C 156.620 347.843, 154.916 350.205, 155.123 350.358 C 155.331 350.510, 159.412 353.755, 164.193 357.568 C 168.973 361.380, 173.906 365.222, 175.153 366.104 C 177.354 367.660, 177.370 367.787, 175.688 370.354 C 174.734 371.809, 173.555 373, 173.067 373 C 172.579 373, 169.777 371.091, 166.840 368.758 C 163.903 366.424, 159.250 362.810, 156.500 360.726 L 151.500 356.936 149.793 359.218 C 148.854 360.473, 147.107 362.768, 145.911 364.317 L 143.737 367.134 147.118 370.077 C 148.978 371.695, 153.537 375.326, 157.250 378.147 C 160.963 380.967, 164 383.679, 164 384.173 C 164 384.666, 163.287 386.158, 162.416 387.488 L 160.832 389.905 150.885 382.203 C 145.414 377.966, 140.143 373.943, 139.172 373.263 C 137.628 372.181, 136.924 372.673, 133.545 377.199 L 129.683 382.372 133.092 385.247 C 136.164 387.838, 148.179 397.180, 159.421 405.720 L 163.660 408.940 171.362 399.220 C 179.452 389.010, 184.695 382.339, 191.750 373.281 C 194.088 370.280, 196 367.276, 196 366.605 C 196 365.934, 193.188 363.304, 189.750 360.759 C 186.313 358.214, 181.925 354.790, 180 353.148 C 178.075 351.507, 173.479 347.908, 169.786 345.150 L 163.073 340.135 158.910 345.108" stroke="none" fill="#fefdff" fill-rule="evenodd"/><path d="M 235.500 52.673 C 230.268 54.045, 226.754 56.564, 224.348 60.668 C 222.175 64.377, 221.831 65.990, 222.182 70.834 C 222.906 80.853, 226.422 83.368, 243.395 86.011 C 251.999 87.351, 254 88.398, 254 91.560 C 254 96.690, 244.494 97.486, 231.288 93.461 C 229.355 92.872, 228.737 93.500, 226.405 98.427 C 224.936 101.529, 223.931 104.264, 224.171 104.504 C 224.411 104.744, 227.508 105.685, 231.054 106.594 C 240.612 109.045, 252.157 108.128, 259.072 104.367 C 266.433 100.364, 268.508 97.222, 268.469 90.135 C 268.412 79.835, 263.672 76.003, 247.069 72.834 C 236.297 70.778, 234.069 69.074, 237.571 65.571 C 239.580 63.563, 247.061 63.512, 253.544 65.463 C 256.219 66.268, 258.434 66.831, 258.467 66.713 C 258.500 66.596, 259.759 63.902, 261.265 60.726 L 264.002 54.951 261.251 53.781 C 258.415 52.575, 239.053 51.742, 235.500 52.673 M 127.240 115.009 C 124.896 115.499, 121.746 116.651, 120.240 117.569 C 117.363 119.322, 103.981 134.858, 100.699 140.255 C 98.807 143.365, 98.808 143.426, 100.736 144.953 C 101.810 145.804, 107.073 149.875, 112.431 154 C 117.790 158.125, 125.622 164.340, 129.837 167.810 C 140.923 176.939, 140.359 176.795, 144.209 171.489 C 146.019 168.994, 149.822 164.049, 152.661 160.502 C 162.370 148.368, 163.614 137.188, 156.450 126.465 C 151.371 118.863, 145.633 115.273, 137.500 114.609 C 134.200 114.339, 129.583 114.519, 127.240 115.009 M 244.500 114.998 C 236.761 115.743, 227.151 117.645, 225.315 118.795 C 224.421 119.355, 224.561 121.139, 225.885 126.073 C 226.850 129.667, 228.016 133.216, 228.474 133.959 C 229.003 134.813, 228.926 135.073, 228.267 134.665 C 226.202 133.389, 200.023 145.990, 194.500 150.918 C 190.328 154.641, 189.863 154.545, 184.955 148.949 L 180.242 143.574 176.371 146.137 C 174.242 147.547, 170.925 150.578, 169 152.874 C 167.075 155.170, 163.659 159.175, 161.409 161.774 C 152.311 172.283, 143.081 189.501, 138.236 205 C 134.110 218.199, 133.539 222.914, 133.518 244 C 133.502 260.295, 133.787 263.632, 135.911 272 C 141.496 294.008, 153.716 316.629, 167.502 330.479 C 175.871 338.886, 185.717 347.146, 191.400 350.525 C 194.644 352.455, 197.372 353.914, 197.462 353.767 C 197.552 353.620, 198.141 351.734, 198.772 349.576 C 199.636 346.622, 199.635 343.820, 198.766 338.235 C 197.689 331.308, 197.337 330.591, 193.453 327.408 C 191.166 325.534, 188.875 324, 188.363 324 C 185.665 324, 184.233 318.085, 183.549 304.113 C 183.162 296.200, 182.361 288.950, 181.769 288.002 C 180.994 286.761, 181.023 284.964, 181.874 281.588 C 182.523 279.008, 182.830 276.535, 182.556 276.091 C 182.282 275.648, 182.492 273.772, 183.022 271.922 C 184.273 267.560, 187.130 245.797, 186.530 245.197 C 186.277 244.944, 186.505 243.924, 187.037 242.931 C 187.568 241.938, 188.166 239.860, 188.366 238.313 C 188.565 236.766, 189.690 233.325, 190.864 230.667 C 192.039 228.009, 193 225.628, 193 225.375 C 193 223.483, 203.314 213.006, 207.716 210.426 C 212.787 207.455, 216.590 207.508, 226.691 210.692 C 231.865 212.323, 232.105 212.312, 234.754 210.335 C 236.255 209.214, 237.893 206.870, 238.393 205.126 C 239.170 202.417, 238.757 200.895, 235.557 194.674 C 233.488 190.653, 230.852 186.969, 229.670 186.446 C 227.045 185.286, 225.012 180.228, 226.742 179.160 C 227.581 178.641, 227.188 176.977, 225.347 173.256 L 222.782 168.075 224.506 160.288 C 226.663 150.540, 227.653 148.663, 233.804 142.654 C 237.871 138.680, 240.361 137.268, 247.632 134.815 C 252.571 133.149, 259.713 131.583, 263.752 131.280 C 271.940 130.667, 273.566 131.418, 285.466 141.312 L 291.431 146.272 301.266 145.628 C 313.729 144.811, 315.172 145.453, 314.851 151.664 C 314.526 157.941, 307.915 165.489, 301.278 167.160 L 296.762 168.297 300.381 171.712 C 304.640 175.729, 304.923 177.622, 301.500 179.182 C 298.124 180.720, 297.922 185.217, 301.250 184.759 C 302.488 184.589, 303.950 184.173, 304.500 183.835 C 306.188 182.796, 314.606 183.428, 316.149 184.708 C 316.949 185.373, 318.593 185.658, 319.802 185.342 C 321.423 184.918, 322 185.209, 322 186.451 C 322 187.628, 322.551 187.960, 323.831 187.554 C 325.498 187.024, 330.232 189.964, 330.066 191.424 C 329.653 195.041, 330.321 195.684, 336.833 197.942 C 345.410 200.916, 347.221 202.393, 349.450 208.231 C 350.925 212.093, 351.135 214.721, 350.646 223.208 C 350.320 228.868, 349.810 234.850, 349.512 236.500 C 349.215 238.150, 348.521 253.450, 347.971 270.500 C 346.899 303.701, 346.179 309.680, 340.599 331.699 C 338.619 339.509, 337 346.177, 337 346.517 C 337 346.858, 338.355 346.171, 340.012 344.992 C 341.668 343.812, 342.724 342.362, 342.357 341.769 C 341.974 341.149, 342.157 340.979, 342.787 341.369 C 344.292 342.298, 359.210 327.989, 358.544 326.254 C 358.257 325.507, 358.433 325.150, 358.935 325.460 C 360.696 326.548, 371.204 311.481, 377.747 298.486 C 381.756 290.522, 386.634 275.040, 388.493 264.378 C 390.277 254.150, 390.466 232.707, 388.858 222.971 C 388.230 219.169, 387.443 216.226, 387.108 216.433 C 386.774 216.640, 386.472 215.389, 386.437 213.655 C 386.348 209.169, 381.356 193.453, 380.112 193.738 C 379.540 193.869, 379.311 193.352, 379.604 192.589 C 380.244 190.922, 376.167 182.630, 370.862 174.805 C 368.738 171.673, 367 168.679, 367 168.153 C 367 166.142, 348.115 146.753, 340 140.434 C 330.594 133.108, 322.522 128.560, 320.808 129.619 C 320.145 130.029, 319.970 129.857, 320.378 129.197 C 321.240 127.803, 315.372 124.643, 313.358 125.416 C 312.554 125.725, 312.142 125.579, 312.442 125.093 C 313.101 124.027, 310.194 122.762, 308.910 123.556 C 308.409 123.865, 308 123.690, 308 123.167 C 308 122.645, 306.762 121.867, 305.250 121.440 C 301.741 120.449, 301.965 120.526, 298.857 119.232 C 296.080 118.075, 288.500 116.450, 288.500 117.011 C 288.500 117.191, 287.530 116.819, 286.345 116.185 C 283.799 114.822, 254.848 114.001, 244.500 114.998 M 128.079 129.389 C 125.144 130.450, 117.011 138.318, 117.003 140.105 C 117.001 140.438, 119.813 142.662, 123.250 145.047 C 126.688 147.432, 131.476 151.097, 133.891 153.192 C 136.306 155.286, 138.556 156.982, 138.891 156.961 C 139.226 156.940, 141.036 154.836, 142.914 152.286 C 149.807 142.924, 147.747 132.805, 138.292 129.584 C 132.911 127.750, 132.627 127.745, 128.079 129.389 M 86.158 167.250 C 85.066 170.137, 83.878 173.242, 83.518 174.150 C 83.020 175.404, 83.733 176.087, 86.489 176.997 C 88.484 177.655, 95.377 180.666, 101.808 183.688 C 117.140 190.894, 118.440 191.474, 125.500 194.260 L 131.500 196.627 134.212 190.564 C 137.420 183.391, 137.631 183.694, 126.103 178.908 C 121.921 177.172, 111.864 172.657, 103.753 168.876 C 95.642 165.094, 88.812 162, 88.575 162 C 88.338 162, 87.250 164.363, 86.158 167.250 M 292 187.809 C 292 188.254, 292.585 189.418, 293.300 190.396 C 294.511 192.052, 294.680 191.997, 295.779 189.587 C 296.874 187.183, 296.782 187, 294.479 187 C 293.115 187, 292 187.364, 292 187.809 M 98.629 195.750 C 98.350 196.713, 97.407 201.550, 96.534 206.500 C 95.660 211.450, 94.709 216.683, 94.420 218.128 C 93.915 220.654, 94.111 220.783, 99.438 221.449 C 102.488 221.830, 105.324 222.133, 105.741 222.122 C 106.159 222.111, 106.876 220.221, 107.335 217.921 C 108.089 214.139, 108.317 213.889, 109.724 215.296 C 110.579 216.151, 111.466 219.022, 111.695 221.675 C 112.650 232.742, 101.486 240.155, 90.672 235.636 C 87.179 234.177, 84.993 231.432, 83.234 226.296 C 81.962 222.584, 83.135 217.036, 86.062 212.918 L 87.896 210.337 83.698 206.858 C 77.340 201.588, 77.529 201.581, 73.663 207.261 C 69.396 213.530, 68.121 221.447, 69.954 230.280 C 70.863 234.657, 72.133 237.044, 75.610 240.912 C 90.079 257.004, 113.867 253.614, 123.074 234.149 C 126.329 227.264, 126.136 217.843, 122.591 210.596 C 119.174 203.612, 112.278 197.457, 105.672 195.495 C 99.367 193.623, 99.243 193.627, 98.629 195.750 M 296.266 199.948 C 297.076 205.988, 295.590 207.239, 287.231 207.553 C 283.333 207.700, 279.241 208.106, 278.137 208.457 C 275.815 209.193, 272.514 217.893, 273.444 220.823 C 274.176 223.131, 280.601 227.811, 288.657 231.905 C 292.014 233.611, 295.325 235.687, 296.015 236.518 C 297.182 237.924, 299.671 246.566, 300.408 251.772 C 300.585 253.022, 301.460 254.851, 302.353 255.838 C 303.246 256.824, 304.258 259.041, 304.603 260.765 C 304.948 262.488, 306.037 264.629, 307.024 265.522 C 308.687 267.027, 308.862 267.010, 309.411 265.281 C 311.078 260.027, 311.680 248.111, 310.892 235.947 C 310.059 223.073, 308.772 217, 306.879 217 C 306.395 217, 305.987 216.438, 305.972 215.750 C 305.957 215.063, 304.607 212.732, 302.972 210.572 C 300.792 207.690, 300 205.545, 300 202.522 C 300 198.588, 298.678 196, 296.668 196 C 296.156 196, 295.975 197.777, 296.266 199.948 M 330.550 213.154 C 329.131 230.822, 329.124 234.986, 330.486 250.500 C 333.030 279.463, 333.134 282.393, 332.034 293.849 C 330.710 307.636, 329.408 311.104, 324.722 313.328 C 319.854 315.638, 319.115 315.521, 310.556 311.092 C 306.402 308.943, 302.752 307.593, 302.443 308.092 C 301.229 310.056, 298.047 308.821, 295.118 305.250 C 292.556 302.128, 291.870 301.751, 291.017 303 C 289.641 305.016, 289.862 343.797, 291.254 344.657 C 291.818 345.006, 295.367 345.319, 299.140 345.354 C 304.220 345.400, 306 345.769, 306 346.774 C 306 349.167, 303.981 352, 302.276 352 C 300.937 352, 301.057 352.405, 302.910 354.131 C 304.579 355.686, 305.053 356.983, 304.664 358.928 C 303.591 364.295, 305.117 364.510, 314.175 360.265 C 318.809 358.094, 325.119 354.706, 328.196 352.738 C 333.576 349.296, 333.818 348.954, 334.499 343.829 C 334.889 340.898, 336.713 332.632, 338.554 325.461 C 340.394 318.289, 342.355 308.389, 342.911 303.461 C 343.741 296.113, 346.016 248.697, 345.884 241.500 C 345.864 240.400, 346.387 234.100, 347.046 227.500 C 347.814 219.803, 347.914 214.268, 347.325 212.065 C 346.492 208.949, 345.900 208.503, 340.953 207.264 C 337.954 206.513, 334.537 205.653, 333.360 205.354 C 331.338 204.839, 331.184 205.267, 330.550 213.154 M 115.060 257.395 C 113.169 258.079, 111.443 259.172, 111.225 259.824 C 111.008 260.476, 111.772 263.925, 112.922 267.487 C 115.346 274.989, 118.073 286.260, 117.584 286.750 C 117.399 286.934, 115.720 287.334, 113.852 287.637 L 110.456 288.188 107.180 276.825 C 105.378 270.575, 103.566 264.916, 103.153 264.248 C 101.977 262.345, 90.704 265.786, 91.481 267.811 C 91.798 268.638, 93.165 273.251, 94.517 278.061 C 95.870 282.872, 97.426 287.989, 97.975 289.434 C 98.859 291.760, 98.682 292.171, 96.421 293.030 C 90.661 295.220, 90.407 294.845, 86.261 278 C 84.840 272.225, 83.573 267.361, 83.446 267.191 C 83.219 266.887, 71.796 269.986, 71.190 270.516 C 70.748 270.902, 82.094 309.346, 82.917 310.249 C 83.292 310.661, 90.551 308.998, 99.049 306.554 C 107.547 304.109, 118.325 301.114, 123 299.898 C 127.675 298.683, 132.025 297.421, 132.667 297.094 C 133.857 296.489, 131.956 288.257, 125.427 265.750 C 122.323 255.046, 122.087 254.856, 115.060 257.395 M 130 304.606 C 128.075 305.985, 125.859 307.487, 125.075 307.944 C 123.925 308.615, 124.319 309.711, 127.121 313.637 C 129.029 316.312, 131.718 320.525, 133.096 323 C 134.474 325.475, 136.416 328.734, 137.411 330.242 C 139.160 332.894, 139.159 333.008, 137.360 333.742 C 136.337 334.159, 130.325 337.911, 124 342.080 C 117.675 346.249, 110.793 350.685, 108.706 351.939 C 104.934 354.204, 104.922 354.232, 106.589 356.859 C 110.601 363.182, 113.278 366.107, 114.591 365.603 C 115.354 365.311, 121.391 361.455, 128.008 357.036 C 134.624 352.616, 140.297 349, 140.614 349 C 140.931 349, 144.980 346.453, 149.610 343.339 C 157.674 337.918, 157.967 337.590, 156.537 335.589 C 155.715 334.440, 153.384 330.800, 151.356 327.500 C 143.554 314.803, 134.944 302.002, 134.238 302.049 C 133.832 302.076, 131.925 303.227, 130 304.606 M 159.069 345.614 L 155.639 350.166 158.569 352.471 C 160.181 353.739, 163.075 356.181, 165 357.899 C 166.925 359.617, 170.637 362.415, 173.250 364.116 C 175.863 365.817, 177.984 367.499, 177.964 367.854 C 177.944 368.209, 176.851 369.818, 175.534 371.428 L 173.141 374.356 168.472 370.428 C 165.905 368.268, 162.835 365.845, 161.652 365.044 C 160.468 364.243, 157.751 362.244, 155.614 360.602 L 151.729 357.617 149.811 360.058 C 148.756 361.401, 147.242 363.293, 146.446 364.261 C 145.651 365.230, 145 366.451, 145 366.975 C 145 368.119, 155.758 377.191, 161.153 380.596 C 163.269 381.932, 165 383.444, 165 383.957 C 165 384.469, 163.977 386.078, 162.726 387.533 L 160.451 390.177 149.476 381.608 C 143.439 376.896, 138.184 373.031, 137.798 373.020 C 137.412 373.009, 135.688 375.047, 133.966 377.549 C 131.359 381.339, 131.049 382.354, 132.108 383.630 C 133.420 385.211, 162.603 408, 163.315 408 C 163.902 408, 176.086 393.179, 179 388.921 C 180.375 386.912, 183.525 382.908, 186 380.024 C 188.475 377.140, 191.765 372.922, 193.311 370.650 L 196.121 366.519 192.336 363.509 C 190.254 361.854, 185.521 358.025, 181.819 355 C 174.984 349.416, 163.530 340.975, 162.865 341.031 C 162.664 341.048, 160.956 343.110, 159.069 345.614" stroke="none" fill="#010001" fill-rule="evenodd"/><path d="M 184 35.862 C 171.320 40.401, 150.860 50.855, 139.684 58.506 C 125.504 68.212, 123 70.106, 123 71.119 C 123 71.924, 131.518 83.166, 135.500 87.618 C 138.910 91.431, 158.636 115.696, 162.500 120.831 C 163.600 122.293, 167.799 127.488, 171.832 132.376 C 176.656 138.224, 179.004 141.877, 178.695 143.057 C 178.395 144.205, 178.675 144.678, 179.475 144.371 C 180.162 144.108, 182.628 146.166, 184.955 148.946 C 187.282 151.726, 189.532 154, 189.956 154 C 190.379 154, 192.402 152.667, 194.452 151.038 C 198.940 147.472, 214.273 139.206, 222.304 136.024 C 226.463 134.376, 227.950 133.311, 227.550 132.269 C 227.243 131.469, 226.719 129.619, 226.386 128.157 C 226.053 126.696, 222.480 115.150, 218.446 102.500 C 214.412 89.850, 210.452 77.025, 209.646 74 C 207.322 65.279, 197.994 35.857, 196.912 33.835 C 196.372 32.826, 195.608 32.023, 195.215 32.052 C 194.822 32.080, 189.775 33.795, 184 35.862 M 255.250 41.739 C 258.413 41.937, 263.587 41.937, 266.750 41.739 C 269.913 41.541, 267.325 41.378, 261 41.378 C 254.675 41.378, 252.088 41.541, 255.250 41.739 M 244.250 51.716 C 245.762 51.945, 248.238 51.945, 249.750 51.716 C 251.262 51.487, 250.025 51.300, 247 51.300 C 243.975 51.300, 242.738 51.487, 244.250 51.716 M 334.643 55.780 C 333.986 56.860, 320.759 90.123, 316.661 101 C 314.693 106.225, 311.968 113.186, 310.605 116.469 L 308.128 122.438 313.314 124.600 C 321.969 128.208, 332.108 134.258, 340.518 140.834 C 348.260 146.887, 367 166.220, 367 168.153 C 367 168.679, 368.799 171.758, 370.997 174.995 C 382.969 192.625, 390 217.594, 390 242.479 C 390 269.846, 383.225 292.051, 367.681 315.627 C 360.343 326.756, 339.187 347.852, 336.827 346.393 C 336.372 346.112, 335.996 347.146, 335.991 348.691 C 335.980 352.071, 332.997 363.892, 325.566 390 C 315.347 425.904, 314.156 430.471, 313.505 436.250 C 313.148 439.413, 313.107 442, 313.413 442 C 315.921 442, 337.763 433.700, 347.813 428.929 C 400.899 403.725, 440.102 358.146, 456.993 301.992 C 460.434 290.552, 461.312 285.845, 463.517 267 C 465.388 251.014, 465.385 237.384, 463.508 222.962 C 462.688 216.658, 461.759 209.475, 461.445 207 C 459.406 190.948, 447.663 159.386, 437.349 142.234 C 421.407 115.726, 398.875 91.963, 373.674 75.080 C 360.176 66.037, 335.751 53.960, 334.643 55.780 M 221.252 69.500 C 221.263 71.700, 221.468 72.482, 221.707 71.238 C 221.946 69.994, 221.937 68.194, 221.687 67.238 C 221.437 66.282, 221.241 67.300, 221.252 69.500 M 178 71.595 C 164.718 75.185, 156.666 85.702, 156.636 99.500 C 156.618 107.942, 158.895 112.994, 165.841 119.928 C 176.914 130.981, 193.505 130.337, 205.452 118.390 C 215.316 108.526, 215.574 90.204, 205.990 80.229 C 198.097 72.015, 187.986 68.896, 178 71.595 M 179.500 85.378 C 168.958 90.181, 168.046 104.882, 177.875 111.561 C 186.129 117.170, 197.001 111.930, 198.689 101.530 C 199.409 97.089, 195.118 87.831, 191.595 86.225 C 187.349 84.290, 182.615 83.959, 179.500 85.378 M 245.762 114.707 C 247.006 114.946, 248.806 114.937, 249.762 114.687 C 250.718 114.437, 249.700 114.241, 247.500 114.252 C 245.300 114.263, 244.518 114.468, 245.762 114.707 M 273.250 114.689 C 274.212 114.941, 275.788 114.941, 276.750 114.689 C 277.712 114.438, 276.925 114.232, 275 114.232 C 273.075 114.232, 272.288 114.438, 273.250 114.689 M 287.220 143.533 C 288.716 145.106, 290.119 146.193, 290.338 145.947 C 290.557 145.701, 289.333 144.414, 287.618 143.086 L 284.500 140.672 287.220 143.533 M 295.500 185.727 C 293.850 185.962, 292.126 186.515, 291.670 186.957 C 291.213 187.399, 292.693 187.422, 294.959 187.007 C 297.225 186.593, 299.361 185.972, 299.706 185.627 C 300.051 185.282, 299.921 185.067, 299.417 185.150 C 298.913 185.232, 297.150 185.492, 295.500 185.727 M 310.232 226 C 310.232 227.925, 310.438 228.713, 310.689 227.750 C 310.941 226.787, 310.941 225.213, 310.689 224.250 C 310.438 223.287, 310.232 224.075, 310.232 226 M 349.232 233 C 349.232 234.925, 349.438 235.713, 349.689 234.750 C 349.941 233.787, 349.941 232.213, 349.689 231.250 C 349.438 230.287, 349.232 231.075, 349.232 233 M 346.300 237 C 346.300 240.025, 346.487 241.262, 346.716 239.750 C 346.945 238.238, 346.945 235.762, 346.716 234.250 C 346.487 232.738, 346.300 233.975, 346.300 237 M 132.365 242.500 C 132.368 248, 132.536 250.122, 132.738 247.216 C 132.941 244.311, 132.939 239.811, 132.734 237.216 C 132.528 234.622, 132.363 237, 132.365 242.500 M 58.272 239 C 58.272 241.475, 58.467 242.488, 58.706 241.250 C 58.944 240.012, 58.944 237.988, 58.706 236.750 C 58.467 235.512, 58.272 236.525, 58.272 239 M 73 239.313 C 73 239.485, 74.463 240.948, 76.250 242.563 L 79.500 245.500 76.563 242.250 C 73.825 239.221, 73 238.540, 73 239.313 M 311.232 243 C 311.232 244.925, 311.438 245.713, 311.689 244.750 C 311.941 243.787, 311.941 242.213, 311.689 241.250 C 311.438 240.287, 311.232 241.075, 311.232 243 M 348.252 252.500 C 348.263 254.700, 348.468 255.482, 348.707 254.238 C 348.946 252.994, 348.937 251.194, 348.687 250.238 C 348.437 249.282, 348.241 250.300, 348.252 252.500 M 345.232 261 C 345.232 262.925, 345.438 263.712, 345.689 262.750 C 345.941 261.788, 345.941 260.212, 345.689 259.250 C 345.438 258.288, 345.232 259.075, 345.232 261 M 332.328 281.500 C 332.333 285.350, 332.513 286.802, 332.730 284.728 C 332.946 282.653, 332.943 279.503, 332.722 277.728 C 332.501 275.952, 332.324 277.650, 332.328 281.500 M 344.336 284 C 344.336 288.125, 344.513 289.813, 344.728 287.750 C 344.944 285.688, 344.944 282.313, 344.728 280.250 C 344.513 278.188, 344.336 279.875, 344.336 284 M 347.272 288 C 347.272 290.475, 347.467 291.488, 347.706 290.250 C 347.944 289.012, 347.944 286.988, 347.706 285.750 C 347.467 284.512, 347.272 285.525, 347.272 288 M 182.989 295.295 L 183.477 302.500 183.790 296.102 C 183.962 292.582, 183.742 289.340, 183.302 288.897 C 182.861 288.453, 182.720 291.333, 182.989 295.295 M 174 337.500 C 175.866 339.425, 177.617 341, 177.892 341 C 178.167 341, 176.866 339.425, 175 337.500 C 173.134 335.575, 171.383 334, 171.108 334 C 170.833 334, 172.134 335.575, 174 337.500 M 327.500 353.063 C 324.200 355.210, 317.777 358.648, 313.227 360.702 C 305.295 364.282, 304.929 364.593, 304.345 368.244 C 303.921 370.897, 302.849 372.683, 300.810 374.135 C 299.201 375.281, 298.137 376.470, 298.445 376.778 C 299.181 377.514, 296.004 381, 294.595 381.001 C 293.883 381.002, 293.533 383.884, 293.595 389.251 C 293.693 397.740, 294.837 401.689, 300.706 413.786 C 302.790 418.082, 303.162 419.985, 302.692 423.949 C 302.251 427.678, 302.689 430.410, 304.557 435.560 C 305.901 439.263, 307 442.453, 307 442.647 C 307 442.841, 307.886 443, 308.969 443 C 310.303 443, 310.753 442.519, 310.365 441.508 C 309.449 439.121, 311.691 428.336, 315.554 416.545 C 317.520 410.543, 319.489 403.803, 319.930 401.566 C 320.370 399.330, 323.008 390.051, 325.792 380.946 C 329.716 368.113, 334.532 348.532, 333.630 349.079 C 333.558 349.122, 330.800 350.915, 327.500 353.063 M 130.955 380.555 C 129.872 381.859, 130.047 382.462, 132.045 384.305 L 134.426 386.500 132.575 384.269 C 131.059 382.442, 130.952 381.762, 131.984 380.519 C 132.678 379.683, 133.020 379, 132.745 379 C 132.470 379, 131.664 379.700, 130.955 380.555" stroke="none" fill="#e87c0d" fill-rule="evenodd"/></svg>